<mxfile host="app.diagrams.net" agent="Mozilla/5.0 (Windows NT 10.0; Win64; x64) AppleWebKit/537.36 (KHTML, like Gecko) Chrome/133.0.0.0 Safari/537.36" version="26.0.14">
  <diagram name="Página-1" id="rO_0NkyEJFVlt5oIiveD">
    <mxGraphModel dx="1877" dy="565" grid="1" gridSize="10" guides="1" tooltips="1" connect="1" arrows="1" fold="1" page="1" pageScale="1" pageWidth="827" pageHeight="1169" math="0" shadow="0">
      <root>
        <mxCell id="0" />
        <mxCell id="1" parent="0" />
        <mxCell id="wF7e7sbDuZ6mt1JohIce-4" value="" style="edgeStyle=orthogonalEdgeStyle;rounded=0;orthogonalLoop=1;jettySize=auto;html=1;" edge="1" parent="1" source="wF7e7sbDuZ6mt1JohIce-2" target="wF7e7sbDuZ6mt1JohIce-3">
          <mxGeometry relative="1" as="geometry" />
        </mxCell>
        <mxCell id="wF7e7sbDuZ6mt1JohIce-2" value="Início" style="strokeWidth=2;html=1;shape=mxgraph.flowchart.start_1;whiteSpace=wrap;fillColor=#fad9d5;strokeColor=#ae4132;" vertex="1" parent="1">
          <mxGeometry x="-60" y="40" width="100" height="60" as="geometry" />
        </mxCell>
        <mxCell id="wF7e7sbDuZ6mt1JohIce-6" value="" style="edgeStyle=orthogonalEdgeStyle;rounded=0;orthogonalLoop=1;jettySize=auto;html=1;" edge="1" parent="1" source="wF7e7sbDuZ6mt1JohIce-3" target="wF7e7sbDuZ6mt1JohIce-5">
          <mxGeometry relative="1" as="geometry" />
        </mxCell>
        <mxCell id="wF7e7sbDuZ6mt1JohIce-3" value="recebe o 1° número" style="shape=parallelogram;html=1;strokeWidth=2;perimeter=parallelogramPerimeter;whiteSpace=wrap;rounded=1;arcSize=12;size=0.23;fillColor=#b1ddf0;strokeColor=#10739e;" vertex="1" parent="1">
          <mxGeometry x="-60" y="140" width="100" height="60" as="geometry" />
        </mxCell>
        <mxCell id="wF7e7sbDuZ6mt1JohIce-9" value="" style="edgeStyle=orthogonalEdgeStyle;rounded=0;orthogonalLoop=1;jettySize=auto;html=1;" edge="1" parent="1" source="wF7e7sbDuZ6mt1JohIce-5" target="wF7e7sbDuZ6mt1JohIce-8">
          <mxGeometry relative="1" as="geometry" />
        </mxCell>
        <mxCell id="wF7e7sbDuZ6mt1JohIce-5" value="recebe o 2° número" style="shape=parallelogram;html=1;strokeWidth=2;perimeter=parallelogramPerimeter;whiteSpace=wrap;rounded=1;arcSize=12;size=0.23;fillColor=#b1ddf0;strokeColor=#10739e;" vertex="1" parent="1">
          <mxGeometry x="-60" y="240" width="100" height="60" as="geometry" />
        </mxCell>
        <mxCell id="wF7e7sbDuZ6mt1JohIce-11" value="" style="edgeStyle=orthogonalEdgeStyle;rounded=0;orthogonalLoop=1;jettySize=auto;html=1;" edge="1" parent="1" source="wF7e7sbDuZ6mt1JohIce-8" target="wF7e7sbDuZ6mt1JohIce-10">
          <mxGeometry relative="1" as="geometry" />
        </mxCell>
        <mxCell id="wF7e7sbDuZ6mt1JohIce-8" value="Realizar soma dos n° obtidos&amp;nbsp;" style="rounded=1;whiteSpace=wrap;html=1;absoluteArcSize=1;arcSize=14;strokeWidth=2;fillColor=#fad7ac;strokeColor=#b46504;" vertex="1" parent="1">
          <mxGeometry x="-52.5" y="340" width="85" height="60" as="geometry" />
        </mxCell>
        <mxCell id="wF7e7sbDuZ6mt1JohIce-13" value="" style="edgeStyle=orthogonalEdgeStyle;rounded=0;orthogonalLoop=1;jettySize=auto;html=1;" edge="1" parent="1" source="wF7e7sbDuZ6mt1JohIce-10">
          <mxGeometry relative="1" as="geometry">
            <mxPoint x="-10" y="540" as="targetPoint" />
          </mxGeometry>
        </mxCell>
        <mxCell id="wF7e7sbDuZ6mt1JohIce-10" value="Exibe resultado da soma" style="strokeWidth=2;html=1;shape=mxgraph.flowchart.display;whiteSpace=wrap;fillColor=#b0e3e6;strokeColor=#0e8088;" vertex="1" parent="1">
          <mxGeometry x="-60" y="440" width="100" height="60" as="geometry" />
        </mxCell>
        <mxCell id="wF7e7sbDuZ6mt1JohIce-14" value="Fim" style="strokeWidth=2;html=1;shape=mxgraph.flowchart.terminator;whiteSpace=wrap;fillColor=#bac8d3;strokeColor=#23445d;" vertex="1" parent="1">
          <mxGeometry x="-60" y="540" width="100" height="60" as="geometry" />
        </mxCell>
        <mxCell id="wF7e7sbDuZ6mt1JohIce-19" value="" style="edgeStyle=orthogonalEdgeStyle;rounded=0;orthogonalLoop=1;jettySize=auto;html=1;" edge="1" parent="1" source="wF7e7sbDuZ6mt1JohIce-15" target="wF7e7sbDuZ6mt1JohIce-18">
          <mxGeometry relative="1" as="geometry" />
        </mxCell>
        <mxCell id="wF7e7sbDuZ6mt1JohIce-15" value="Iníco" style="strokeWidth=2;html=1;shape=mxgraph.flowchart.start_1;whiteSpace=wrap;fillColor=#fad9d5;strokeColor=#ae4132;" vertex="1" parent="1">
          <mxGeometry x="210" y="40" width="100" height="60" as="geometry" />
        </mxCell>
        <mxCell id="wF7e7sbDuZ6mt1JohIce-29" value="" style="edgeStyle=orthogonalEdgeStyle;rounded=0;orthogonalLoop=1;jettySize=auto;html=1;" edge="1" parent="1" source="wF7e7sbDuZ6mt1JohIce-16" target="wF7e7sbDuZ6mt1JohIce-27">
          <mxGeometry relative="1" as="geometry" />
        </mxCell>
        <mxCell id="wF7e7sbDuZ6mt1JohIce-16" value="Iníco" style="strokeWidth=2;html=1;shape=mxgraph.flowchart.start_1;whiteSpace=wrap;fillColor=#fad9d5;strokeColor=#ae4132;" vertex="1" parent="1">
          <mxGeometry x="480" y="40" width="100" height="60" as="geometry" />
        </mxCell>
        <mxCell id="wF7e7sbDuZ6mt1JohIce-22" value="" style="edgeStyle=orthogonalEdgeStyle;rounded=0;orthogonalLoop=1;jettySize=auto;html=1;" edge="1" parent="1" source="wF7e7sbDuZ6mt1JohIce-17" target="wF7e7sbDuZ6mt1JohIce-21">
          <mxGeometry relative="1" as="geometry" />
        </mxCell>
        <mxCell id="wF7e7sbDuZ6mt1JohIce-17" value="Receba altura do triangulo" style="shape=parallelogram;html=1;strokeWidth=2;perimeter=parallelogramPerimeter;whiteSpace=wrap;rounded=1;arcSize=12;size=0.23;fillColor=#b1ddf0;strokeColor=#10739e;" vertex="1" parent="1">
          <mxGeometry x="175" y="250" width="135" height="60" as="geometry" />
        </mxCell>
        <mxCell id="wF7e7sbDuZ6mt1JohIce-20" value="" style="edgeStyle=orthogonalEdgeStyle;rounded=0;orthogonalLoop=1;jettySize=auto;html=1;" edge="1" parent="1" source="wF7e7sbDuZ6mt1JohIce-18" target="wF7e7sbDuZ6mt1JohIce-17">
          <mxGeometry relative="1" as="geometry" />
        </mxCell>
        <mxCell id="wF7e7sbDuZ6mt1JohIce-18" value="receba base do triangulo" style="shape=parallelogram;html=1;strokeWidth=2;perimeter=parallelogramPerimeter;whiteSpace=wrap;rounded=1;arcSize=12;size=0.23;fillColor=#b1ddf0;strokeColor=#10739e;" vertex="1" parent="1">
          <mxGeometry x="195" y="140" width="130" height="60" as="geometry" />
        </mxCell>
        <mxCell id="wF7e7sbDuZ6mt1JohIce-26" value="" style="edgeStyle=orthogonalEdgeStyle;rounded=0;orthogonalLoop=1;jettySize=auto;html=1;" edge="1" parent="1" source="wF7e7sbDuZ6mt1JohIce-21" target="wF7e7sbDuZ6mt1JohIce-23">
          <mxGeometry relative="1" as="geometry" />
        </mxCell>
        <mxCell id="wF7e7sbDuZ6mt1JohIce-21" value="Calcule a área" style="rounded=1;whiteSpace=wrap;html=1;absoluteArcSize=1;arcSize=14;strokeWidth=2;fillColor=#fad7ac;strokeColor=#b46504;" vertex="1" parent="1">
          <mxGeometry x="210" y="350" width="85" height="60" as="geometry" />
        </mxCell>
        <mxCell id="wF7e7sbDuZ6mt1JohIce-25" value="" style="edgeStyle=orthogonalEdgeStyle;rounded=0;orthogonalLoop=1;jettySize=auto;html=1;" edge="1" parent="1" source="wF7e7sbDuZ6mt1JohIce-23" target="wF7e7sbDuZ6mt1JohIce-24">
          <mxGeometry relative="1" as="geometry" />
        </mxCell>
        <mxCell id="wF7e7sbDuZ6mt1JohIce-23" value="exiba resultado da área" style="strokeWidth=2;html=1;shape=mxgraph.flowchart.display;whiteSpace=wrap;fillColor=#b0e3e6;strokeColor=#0e8088;" vertex="1" parent="1">
          <mxGeometry x="195" y="460" width="100" height="60" as="geometry" />
        </mxCell>
        <mxCell id="wF7e7sbDuZ6mt1JohIce-24" value="Fim" style="strokeWidth=2;html=1;shape=mxgraph.flowchart.terminator;whiteSpace=wrap;fillColor=#bac8d3;strokeColor=#23445d;" vertex="1" parent="1">
          <mxGeometry x="210" y="560" width="100" height="60" as="geometry" />
        </mxCell>
        <mxCell id="wF7e7sbDuZ6mt1JohIce-30" value="" style="edgeStyle=orthogonalEdgeStyle;rounded=0;orthogonalLoop=1;jettySize=auto;html=1;" edge="1" parent="1" source="wF7e7sbDuZ6mt1JohIce-27" target="wF7e7sbDuZ6mt1JohIce-28">
          <mxGeometry relative="1" as="geometry" />
        </mxCell>
        <mxCell id="wF7e7sbDuZ6mt1JohIce-27" value="obtenha um número" style="shape=parallelogram;html=1;strokeWidth=2;perimeter=parallelogramPerimeter;whiteSpace=wrap;rounded=1;arcSize=12;size=0.23;fillColor=#b1ddf0;strokeColor=#10739e;" vertex="1" parent="1">
          <mxGeometry x="500" y="130" width="105" height="60" as="geometry" />
        </mxCell>
        <mxCell id="wF7e7sbDuZ6mt1JohIce-42" value="" style="edgeStyle=orthogonalEdgeStyle;rounded=0;orthogonalLoop=1;jettySize=auto;html=1;" edge="1" parent="1" source="wF7e7sbDuZ6mt1JohIce-28" target="wF7e7sbDuZ6mt1JohIce-40">
          <mxGeometry relative="1" as="geometry" />
        </mxCell>
        <mxCell id="wF7e7sbDuZ6mt1JohIce-28" value="Calcule o dobro do número" style="rounded=1;whiteSpace=wrap;html=1;absoluteArcSize=1;arcSize=14;strokeWidth=2;fillColor=#fad7ac;strokeColor=#b46504;" vertex="1" parent="1">
          <mxGeometry x="470" y="220" width="85" height="60" as="geometry" />
        </mxCell>
        <mxCell id="wF7e7sbDuZ6mt1JohIce-44" value="" style="edgeStyle=orthogonalEdgeStyle;rounded=0;orthogonalLoop=1;jettySize=auto;html=1;" edge="1" parent="1" source="wF7e7sbDuZ6mt1JohIce-32" target="wF7e7sbDuZ6mt1JohIce-43">
          <mxGeometry relative="1" as="geometry" />
        </mxCell>
        <mxCell id="wF7e7sbDuZ6mt1JohIce-32" value="exiba o dobro" style="strokeWidth=2;html=1;shape=mxgraph.flowchart.display;whiteSpace=wrap;fillColor=#b0e3e6;strokeColor=#0e8088;" vertex="1" parent="1">
          <mxGeometry x="495" y="400" width="100" height="60" as="geometry" />
        </mxCell>
        <mxCell id="wF7e7sbDuZ6mt1JohIce-33" value="Fim" style="strokeWidth=2;html=1;shape=mxgraph.flowchart.terminator;whiteSpace=wrap;fillColor=#bac8d3;strokeColor=#23445d;" vertex="1" parent="1">
          <mxGeometry x="487.5" y="585" width="100" height="60" as="geometry" />
        </mxCell>
        <mxCell id="wF7e7sbDuZ6mt1JohIce-41" value="" style="edgeStyle=orthogonalEdgeStyle;rounded=0;orthogonalLoop=1;jettySize=auto;html=1;" edge="1" parent="1" source="wF7e7sbDuZ6mt1JohIce-40" target="wF7e7sbDuZ6mt1JohIce-32">
          <mxGeometry relative="1" as="geometry" />
        </mxCell>
        <mxCell id="wF7e7sbDuZ6mt1JohIce-40" value="Calcule a metade do número" style="rounded=1;whiteSpace=wrap;html=1;absoluteArcSize=1;arcSize=14;strokeWidth=2;fillColor=#fad7ac;strokeColor=#b46504;" vertex="1" parent="1">
          <mxGeometry x="495" y="310" width="85" height="60" as="geometry" />
        </mxCell>
        <mxCell id="wF7e7sbDuZ6mt1JohIce-45" value="" style="edgeStyle=orthogonalEdgeStyle;rounded=0;orthogonalLoop=1;jettySize=auto;html=1;" edge="1" parent="1" source="wF7e7sbDuZ6mt1JohIce-43" target="wF7e7sbDuZ6mt1JohIce-33">
          <mxGeometry relative="1" as="geometry" />
        </mxCell>
        <mxCell id="wF7e7sbDuZ6mt1JohIce-43" value="exiba a metade" style="strokeWidth=2;html=1;shape=mxgraph.flowchart.display;whiteSpace=wrap;fillColor=#b0e3e6;strokeColor=#0e8088;" vertex="1" parent="1">
          <mxGeometry x="487.5" y="490" width="100" height="60" as="geometry" />
        </mxCell>
        <mxCell id="wF7e7sbDuZ6mt1JohIce-48" value="" style="edgeStyle=orthogonalEdgeStyle;rounded=0;orthogonalLoop=1;jettySize=auto;html=1;" edge="1" parent="1" source="wF7e7sbDuZ6mt1JohIce-46" target="wF7e7sbDuZ6mt1JohIce-47">
          <mxGeometry relative="1" as="geometry" />
        </mxCell>
        <mxCell id="wF7e7sbDuZ6mt1JohIce-46" value="Iníco" style="strokeWidth=2;html=1;shape=mxgraph.flowchart.start_1;whiteSpace=wrap;fillColor=#fad9d5;strokeColor=#ae4132;" vertex="1" parent="1">
          <mxGeometry x="720" y="40" width="100" height="60" as="geometry" />
        </mxCell>
        <mxCell id="wF7e7sbDuZ6mt1JohIce-50" value="" style="edgeStyle=orthogonalEdgeStyle;rounded=0;orthogonalLoop=1;jettySize=auto;html=1;" edge="1" parent="1" source="wF7e7sbDuZ6mt1JohIce-47" target="wF7e7sbDuZ6mt1JohIce-49">
          <mxGeometry relative="1" as="geometry" />
        </mxCell>
        <mxCell id="wF7e7sbDuZ6mt1JohIce-47" value="obter 1° nota" style="shape=parallelogram;html=1;strokeWidth=2;perimeter=parallelogramPerimeter;whiteSpace=wrap;rounded=1;arcSize=12;size=0.23;fillColor=#b1ddf0;strokeColor=#10739e;" vertex="1" parent="1">
          <mxGeometry x="690" y="130" width="105" height="60" as="geometry" />
        </mxCell>
        <mxCell id="wF7e7sbDuZ6mt1JohIce-52" value="" style="edgeStyle=orthogonalEdgeStyle;rounded=0;orthogonalLoop=1;jettySize=auto;html=1;" edge="1" parent="1" source="wF7e7sbDuZ6mt1JohIce-49" target="wF7e7sbDuZ6mt1JohIce-51">
          <mxGeometry relative="1" as="geometry" />
        </mxCell>
        <mxCell id="wF7e7sbDuZ6mt1JohIce-49" value="obter 2° nota" style="shape=parallelogram;html=1;strokeWidth=2;perimeter=parallelogramPerimeter;whiteSpace=wrap;rounded=1;arcSize=12;size=0.23;fillColor=#b1ddf0;strokeColor=#10739e;" vertex="1" parent="1">
          <mxGeometry x="680" y="220" width="105" height="60" as="geometry" />
        </mxCell>
        <mxCell id="wF7e7sbDuZ6mt1JohIce-54" value="" style="edgeStyle=orthogonalEdgeStyle;rounded=0;orthogonalLoop=1;jettySize=auto;html=1;" edge="1" parent="1" source="wF7e7sbDuZ6mt1JohIce-51" target="wF7e7sbDuZ6mt1JohIce-53">
          <mxGeometry relative="1" as="geometry" />
        </mxCell>
        <mxCell id="wF7e7sbDuZ6mt1JohIce-51" value="Calcule a meédia" style="rounded=1;whiteSpace=wrap;html=1;absoluteArcSize=1;arcSize=14;strokeWidth=2;fillColor=#fad7ac;strokeColor=#b46504;" vertex="1" parent="1">
          <mxGeometry x="680" y="310" width="85" height="60" as="geometry" />
        </mxCell>
        <mxCell id="wF7e7sbDuZ6mt1JohIce-97" value="" style="edgeStyle=orthogonalEdgeStyle;rounded=0;orthogonalLoop=1;jettySize=auto;html=1;" edge="1" parent="1" source="wF7e7sbDuZ6mt1JohIce-53" target="wF7e7sbDuZ6mt1JohIce-95">
          <mxGeometry relative="1" as="geometry">
            <mxPoint x="950" y="380" as="targetPoint" />
          </mxGeometry>
        </mxCell>
        <mxCell id="wF7e7sbDuZ6mt1JohIce-98" value="sim" style="edgeLabel;html=1;align=center;verticalAlign=middle;resizable=0;points=[];" vertex="1" connectable="0" parent="wF7e7sbDuZ6mt1JohIce-97">
          <mxGeometry x="-0.0769" y="1" relative="1" as="geometry">
            <mxPoint as="offset" />
          </mxGeometry>
        </mxCell>
        <mxCell id="wF7e7sbDuZ6mt1JohIce-101" value="" style="edgeStyle=orthogonalEdgeStyle;rounded=0;orthogonalLoop=1;jettySize=auto;html=1;" edge="1" parent="1" source="wF7e7sbDuZ6mt1JohIce-53" target="wF7e7sbDuZ6mt1JohIce-99">
          <mxGeometry relative="1" as="geometry">
            <mxPoint x="760" y="625" as="targetPoint" />
            <Array as="points">
              <mxPoint x="720" y="580" />
              <mxPoint x="723" y="580" />
            </Array>
          </mxGeometry>
        </mxCell>
        <mxCell id="wF7e7sbDuZ6mt1JohIce-102" value="Não" style="edgeLabel;html=1;align=center;verticalAlign=middle;resizable=0;points=[];" vertex="1" connectable="0" parent="wF7e7sbDuZ6mt1JohIce-101">
          <mxGeometry x="0.3294" y="-1" relative="1" as="geometry">
            <mxPoint as="offset" />
          </mxGeometry>
        </mxCell>
        <mxCell id="wF7e7sbDuZ6mt1JohIce-53" value="Média é acima de 7?" style="strokeWidth=2;html=1;shape=mxgraph.flowchart.decision;whiteSpace=wrap;fillColor=#fff2cc;gradientColor=#ffd966;strokeColor=#d6b656;" vertex="1" parent="1">
          <mxGeometry x="645" y="420" width="140" height="110" as="geometry" />
        </mxCell>
        <mxCell id="wF7e7sbDuZ6mt1JohIce-108" value="" style="edgeStyle=orthogonalEdgeStyle;rounded=0;orthogonalLoop=1;jettySize=auto;html=1;entryX=0.614;entryY=0.057;entryDx=0;entryDy=0;entryPerimeter=0;" edge="1" parent="1" source="wF7e7sbDuZ6mt1JohIce-95" target="wF7e7sbDuZ6mt1JohIce-103">
          <mxGeometry relative="1" as="geometry">
            <mxPoint x="1110" y="460" as="targetPoint" />
          </mxGeometry>
        </mxCell>
        <mxCell id="wF7e7sbDuZ6mt1JohIce-95" value="exibir Aprovado" style="strokeWidth=2;html=1;shape=mxgraph.flowchart.display;whiteSpace=wrap;fillColor=#b0e3e6;strokeColor=#0e8088;" vertex="1" parent="1">
          <mxGeometry x="850" y="470" width="100" height="60" as="geometry" />
        </mxCell>
        <mxCell id="wF7e7sbDuZ6mt1JohIce-106" value="" style="edgeStyle=orthogonalEdgeStyle;rounded=0;orthogonalLoop=1;jettySize=auto;html=1;" edge="1" parent="1" source="wF7e7sbDuZ6mt1JohIce-99" target="wF7e7sbDuZ6mt1JohIce-103">
          <mxGeometry relative="1" as="geometry" />
        </mxCell>
        <mxCell id="wF7e7sbDuZ6mt1JohIce-99" value="exibir reprovado" style="strokeWidth=2;html=1;shape=mxgraph.flowchart.display;whiteSpace=wrap;fillColor=#b0e3e6;strokeColor=#0e8088;" vertex="1" parent="1">
          <mxGeometry x="682.5" y="610" width="100" height="60" as="geometry" />
        </mxCell>
        <mxCell id="wF7e7sbDuZ6mt1JohIce-103" value="Fim" style="strokeWidth=2;html=1;shape=mxgraph.flowchart.start_1;whiteSpace=wrap;fillColor=#f5f5f5;gradientColor=#b3b3b3;strokeColor=#666666;" vertex="1" parent="1">
          <mxGeometry x="830" y="585" width="100" height="60" as="geometry" />
        </mxCell>
        <mxCell id="wF7e7sbDuZ6mt1JohIce-110" value="" style="edgeStyle=orthogonalEdgeStyle;rounded=0;orthogonalLoop=1;jettySize=auto;html=1;" edge="1" parent="1" source="wF7e7sbDuZ6mt1JohIce-111" target="wF7e7sbDuZ6mt1JohIce-113">
          <mxGeometry relative="1" as="geometry" />
        </mxCell>
        <mxCell id="wF7e7sbDuZ6mt1JohIce-111" value="Iníco" style="strokeWidth=2;html=1;shape=mxgraph.flowchart.start_1;whiteSpace=wrap;fillColor=#fad9d5;strokeColor=#ae4132;" vertex="1" parent="1">
          <mxGeometry x="-525" y="790" width="100" height="60" as="geometry" />
        </mxCell>
        <mxCell id="wF7e7sbDuZ6mt1JohIce-128" value="" style="edgeStyle=orthogonalEdgeStyle;rounded=0;orthogonalLoop=1;jettySize=auto;html=1;" edge="1" parent="1" source="wF7e7sbDuZ6mt1JohIce-113" target="wF7e7sbDuZ6mt1JohIce-122">
          <mxGeometry relative="1" as="geometry" />
        </mxCell>
        <mxCell id="wF7e7sbDuZ6mt1JohIce-113" value="obtenha um número&amp;nbsp;" style="shape=parallelogram;html=1;strokeWidth=2;perimeter=parallelogramPerimeter;whiteSpace=wrap;rounded=1;arcSize=12;size=0.23;fillColor=#b1ddf0;strokeColor=#10739e;" vertex="1" parent="1">
          <mxGeometry x="-580" y="890" width="150" height="50" as="geometry" />
        </mxCell>
        <mxCell id="wF7e7sbDuZ6mt1JohIce-118" value="" style="edgeStyle=orthogonalEdgeStyle;rounded=0;orthogonalLoop=1;jettySize=auto;html=1;" edge="1" parent="1" source="wF7e7sbDuZ6mt1JohIce-122" target="wF7e7sbDuZ6mt1JohIce-124">
          <mxGeometry relative="1" as="geometry">
            <mxPoint x="-295" y="1130" as="targetPoint" />
          </mxGeometry>
        </mxCell>
        <mxCell id="wF7e7sbDuZ6mt1JohIce-119" value="sim" style="edgeLabel;html=1;align=center;verticalAlign=middle;resizable=0;points=[];" vertex="1" connectable="0" parent="wF7e7sbDuZ6mt1JohIce-118">
          <mxGeometry x="-0.0769" y="1" relative="1" as="geometry">
            <mxPoint as="offset" />
          </mxGeometry>
        </mxCell>
        <mxCell id="wF7e7sbDuZ6mt1JohIce-130" value="" style="edgeStyle=orthogonalEdgeStyle;rounded=0;orthogonalLoop=1;jettySize=auto;html=1;entryX=0.5;entryY=0;entryDx=0;entryDy=0;entryPerimeter=0;" edge="1" parent="1" source="wF7e7sbDuZ6mt1JohIce-122" target="wF7e7sbDuZ6mt1JohIce-126">
          <mxGeometry relative="1" as="geometry">
            <mxPoint x="-675" y="1030" as="targetPoint" />
          </mxGeometry>
        </mxCell>
        <mxCell id="wF7e7sbDuZ6mt1JohIce-122" value="Numero é par ?" style="strokeWidth=2;html=1;shape=mxgraph.flowchart.decision;whiteSpace=wrap;fillColor=#fff2cc;gradientColor=#ffd966;strokeColor=#d6b656;" vertex="1" parent="1">
          <mxGeometry x="-600" y="975" width="140" height="110" as="geometry" />
        </mxCell>
        <mxCell id="wF7e7sbDuZ6mt1JohIce-132" value="" style="edgeStyle=orthogonalEdgeStyle;rounded=0;orthogonalLoop=1;jettySize=auto;html=1;entryX=1;entryY=0.5;entryDx=0;entryDy=0;entryPerimeter=0;exitX=0.5;exitY=1;exitDx=0;exitDy=0;exitPerimeter=0;" edge="1" parent="1" source="wF7e7sbDuZ6mt1JohIce-124" target="wF7e7sbDuZ6mt1JohIce-127">
          <mxGeometry relative="1" as="geometry">
            <mxPoint x="-323" y="1250" as="sourcePoint" />
            <mxPoint x="-390" y="1340" as="targetPoint" />
            <Array as="points">
              <mxPoint x="-363" y="1250" />
              <mxPoint x="-360" y="1250" />
              <mxPoint x="-360" y="1251" />
              <mxPoint x="-389" y="1251" />
              <mxPoint x="-389" y="1250" />
            </Array>
          </mxGeometry>
        </mxCell>
        <mxCell id="wF7e7sbDuZ6mt1JohIce-124" value="não" style="strokeWidth=2;html=1;shape=mxgraph.flowchart.display;whiteSpace=wrap;fillColor=#b0e3e6;strokeColor=#0e8088;" vertex="1" parent="1">
          <mxGeometry x="-413" y="1130" width="100" height="60" as="geometry" />
        </mxCell>
        <mxCell id="wF7e7sbDuZ6mt1JohIce-125" value="" style="edgeStyle=orthogonalEdgeStyle;rounded=0;orthogonalLoop=1;jettySize=auto;html=1;" edge="1" parent="1" source="wF7e7sbDuZ6mt1JohIce-126" target="wF7e7sbDuZ6mt1JohIce-127">
          <mxGeometry relative="1" as="geometry">
            <Array as="points">
              <mxPoint x="-700" y="1250" />
            </Array>
          </mxGeometry>
        </mxCell>
        <mxCell id="wF7e7sbDuZ6mt1JohIce-126" value="sim" style="strokeWidth=2;html=1;shape=mxgraph.flowchart.display;whiteSpace=wrap;fillColor=#b0e3e6;strokeColor=#0e8088;" vertex="1" parent="1">
          <mxGeometry x="-770" y="1070" width="100" height="60" as="geometry" />
        </mxCell>
        <mxCell id="wF7e7sbDuZ6mt1JohIce-127" value="Fim" style="strokeWidth=2;html=1;shape=mxgraph.flowchart.start_1;whiteSpace=wrap;fillColor=#f5f5f5;gradientColor=#b3b3b3;strokeColor=#666666;" vertex="1" parent="1">
          <mxGeometry x="-580" y="1220" width="100" height="60" as="geometry" />
        </mxCell>
        <mxCell id="wF7e7sbDuZ6mt1JohIce-133" value="" style="edgeStyle=orthogonalEdgeStyle;rounded=0;orthogonalLoop=1;jettySize=auto;html=1;" edge="1" parent="1" source="wF7e7sbDuZ6mt1JohIce-134" target="wF7e7sbDuZ6mt1JohIce-136">
          <mxGeometry relative="1" as="geometry" />
        </mxCell>
        <mxCell id="wF7e7sbDuZ6mt1JohIce-134" value="Iníco" style="strokeWidth=2;html=1;shape=mxgraph.flowchart.start_1;whiteSpace=wrap;fillColor=#fad9d5;strokeColor=#ae4132;" vertex="1" parent="1">
          <mxGeometry x="45" y="770" width="100" height="60" as="geometry" />
        </mxCell>
        <mxCell id="wF7e7sbDuZ6mt1JohIce-135" value="" style="edgeStyle=orthogonalEdgeStyle;rounded=0;orthogonalLoop=1;jettySize=auto;html=1;" edge="1" parent="1" source="wF7e7sbDuZ6mt1JohIce-136" target="wF7e7sbDuZ6mt1JohIce-140">
          <mxGeometry relative="1" as="geometry" />
        </mxCell>
        <mxCell id="wF7e7sbDuZ6mt1JohIce-136" value="obter a idade&amp;nbsp; da pessoa&amp;nbsp;" style="shape=parallelogram;html=1;strokeWidth=2;perimeter=parallelogramPerimeter;whiteSpace=wrap;rounded=1;arcSize=12;size=0.23;fillColor=#b1ddf0;strokeColor=#10739e;" vertex="1" parent="1">
          <mxGeometry x="-10" y="870" width="130" height="60" as="geometry" />
        </mxCell>
        <mxCell id="wF7e7sbDuZ6mt1JohIce-137" value="" style="edgeStyle=orthogonalEdgeStyle;rounded=0;orthogonalLoop=1;jettySize=auto;html=1;" edge="1" parent="1" source="wF7e7sbDuZ6mt1JohIce-140" target="wF7e7sbDuZ6mt1JohIce-142">
          <mxGeometry relative="1" as="geometry">
            <mxPoint x="275" y="1110" as="targetPoint" />
          </mxGeometry>
        </mxCell>
        <mxCell id="wF7e7sbDuZ6mt1JohIce-138" value="sim" style="edgeLabel;html=1;align=center;verticalAlign=middle;resizable=0;points=[];" vertex="1" connectable="0" parent="wF7e7sbDuZ6mt1JohIce-137">
          <mxGeometry x="-0.0769" y="1" relative="1" as="geometry">
            <mxPoint as="offset" />
          </mxGeometry>
        </mxCell>
        <mxCell id="wF7e7sbDuZ6mt1JohIce-139" value="" style="edgeStyle=orthogonalEdgeStyle;rounded=0;orthogonalLoop=1;jettySize=auto;html=1;entryX=0.5;entryY=0;entryDx=0;entryDy=0;entryPerimeter=0;" edge="1" parent="1" source="wF7e7sbDuZ6mt1JohIce-140" target="wF7e7sbDuZ6mt1JohIce-144">
          <mxGeometry relative="1" as="geometry">
            <mxPoint x="-105" y="1010" as="targetPoint" />
          </mxGeometry>
        </mxCell>
        <mxCell id="wF7e7sbDuZ6mt1JohIce-140" value="A idade é &amp;gt;=18?" style="strokeWidth=2;html=1;shape=mxgraph.flowchart.decision;whiteSpace=wrap;fillColor=#fff2cc;gradientColor=#ffd966;strokeColor=#d6b656;" vertex="1" parent="1">
          <mxGeometry x="-30" y="955" width="140" height="110" as="geometry" />
        </mxCell>
        <mxCell id="wF7e7sbDuZ6mt1JohIce-141" value="" style="edgeStyle=orthogonalEdgeStyle;rounded=0;orthogonalLoop=1;jettySize=auto;html=1;entryX=1;entryY=0.5;entryDx=0;entryDy=0;entryPerimeter=0;exitX=0.5;exitY=1;exitDx=0;exitDy=0;exitPerimeter=0;" edge="1" parent="1" source="wF7e7sbDuZ6mt1JohIce-142" target="wF7e7sbDuZ6mt1JohIce-145">
          <mxGeometry relative="1" as="geometry">
            <mxPoint x="247" y="1230" as="sourcePoint" />
            <mxPoint x="180" y="1320" as="targetPoint" />
            <Array as="points">
              <mxPoint x="207" y="1230" />
              <mxPoint x="210" y="1230" />
              <mxPoint x="210" y="1231" />
              <mxPoint x="181" y="1231" />
              <mxPoint x="181" y="1230" />
            </Array>
          </mxGeometry>
        </mxCell>
        <mxCell id="wF7e7sbDuZ6mt1JohIce-142" value="pode dirigir" style="strokeWidth=2;html=1;shape=mxgraph.flowchart.display;whiteSpace=wrap;fillColor=#b0e3e6;strokeColor=#0e8088;" vertex="1" parent="1">
          <mxGeometry x="157" y="1110" width="100" height="60" as="geometry" />
        </mxCell>
        <mxCell id="wF7e7sbDuZ6mt1JohIce-143" value="" style="edgeStyle=orthogonalEdgeStyle;rounded=0;orthogonalLoop=1;jettySize=auto;html=1;" edge="1" parent="1" source="wF7e7sbDuZ6mt1JohIce-144" target="wF7e7sbDuZ6mt1JohIce-145">
          <mxGeometry relative="1" as="geometry">
            <Array as="points">
              <mxPoint x="-130" y="1230" />
            </Array>
          </mxGeometry>
        </mxCell>
        <mxCell id="wF7e7sbDuZ6mt1JohIce-144" value="Ainda não pode dirigir" style="strokeWidth=2;html=1;shape=mxgraph.flowchart.display;whiteSpace=wrap;fillColor=#b0e3e6;strokeColor=#0e8088;" vertex="1" parent="1">
          <mxGeometry x="-200" y="1050" width="100" height="60" as="geometry" />
        </mxCell>
        <mxCell id="wF7e7sbDuZ6mt1JohIce-145" value="Fim" style="strokeWidth=2;html=1;shape=mxgraph.flowchart.start_1;whiteSpace=wrap;fillColor=#f5f5f5;gradientColor=#b3b3b3;strokeColor=#666666;" vertex="1" parent="1">
          <mxGeometry x="-10" y="1200" width="100" height="60" as="geometry" />
        </mxCell>
        <mxCell id="wF7e7sbDuZ6mt1JohIce-146" value="" style="edgeStyle=orthogonalEdgeStyle;rounded=0;orthogonalLoop=1;jettySize=auto;html=1;" edge="1" parent="1" source="wF7e7sbDuZ6mt1JohIce-147" target="wF7e7sbDuZ6mt1JohIce-149">
          <mxGeometry relative="1" as="geometry" />
        </mxCell>
        <mxCell id="wF7e7sbDuZ6mt1JohIce-147" value="Iníco" style="strokeWidth=2;html=1;shape=mxgraph.flowchart.start_1;whiteSpace=wrap;fillColor=#fad9d5;strokeColor=#ae4132;" vertex="1" parent="1">
          <mxGeometry x="529" y="750" width="100" height="60" as="geometry" />
        </mxCell>
        <mxCell id="wF7e7sbDuZ6mt1JohIce-148" value="" style="edgeStyle=orthogonalEdgeStyle;rounded=0;orthogonalLoop=1;jettySize=auto;html=1;" edge="1" parent="1" source="wF7e7sbDuZ6mt1JohIce-149" target="wF7e7sbDuZ6mt1JohIce-153">
          <mxGeometry relative="1" as="geometry" />
        </mxCell>
        <mxCell id="wF7e7sbDuZ6mt1JohIce-149" value="Peça temperatura&lt;div&gt;&amp;nbsp;do liquido&amp;nbsp;&lt;/div&gt;" style="shape=parallelogram;html=1;strokeWidth=2;perimeter=parallelogramPerimeter;whiteSpace=wrap;rounded=1;arcSize=12;size=0.23;fillColor=#b1ddf0;strokeColor=#10739e;" vertex="1" parent="1">
          <mxGeometry x="441.5" y="860" width="138.5" height="70" as="geometry" />
        </mxCell>
        <mxCell id="wF7e7sbDuZ6mt1JohIce-152" value="" style="edgeStyle=orthogonalEdgeStyle;rounded=0;orthogonalLoop=1;jettySize=auto;html=1;entryX=0.5;entryY=0;entryDx=0;entryDy=0;entryPerimeter=0;" edge="1" parent="1" source="wF7e7sbDuZ6mt1JohIce-153" target="wF7e7sbDuZ6mt1JohIce-157">
          <mxGeometry relative="1" as="geometry">
            <mxPoint x="379" y="1025" as="targetPoint" />
          </mxGeometry>
        </mxCell>
        <mxCell id="wF7e7sbDuZ6mt1JohIce-164" value="sim" style="edgeLabel;html=1;align=center;verticalAlign=middle;resizable=0;points=[];" vertex="1" connectable="0" parent="wF7e7sbDuZ6mt1JohIce-152">
          <mxGeometry x="-0.1345" y="-2" relative="1" as="geometry">
            <mxPoint x="1" as="offset" />
          </mxGeometry>
        </mxCell>
        <mxCell id="wF7e7sbDuZ6mt1JohIce-167" value="" style="edgeStyle=orthogonalEdgeStyle;rounded=0;orthogonalLoop=1;jettySize=auto;html=1;" edge="1" parent="1" source="wF7e7sbDuZ6mt1JohIce-153" target="wF7e7sbDuZ6mt1JohIce-166">
          <mxGeometry relative="1" as="geometry" />
        </mxCell>
        <mxCell id="wF7e7sbDuZ6mt1JohIce-168" value="Não" style="edgeLabel;html=1;align=center;verticalAlign=middle;resizable=0;points=[];" vertex="1" connectable="0" parent="wF7e7sbDuZ6mt1JohIce-167">
          <mxGeometry x="-0.1952" relative="1" as="geometry">
            <mxPoint as="offset" />
          </mxGeometry>
        </mxCell>
        <mxCell id="wF7e7sbDuZ6mt1JohIce-153" value="O liquido é &amp;lt;=0?" style="strokeWidth=2;html=1;shape=mxgraph.flowchart.decision;whiteSpace=wrap;fillColor=#fff2cc;gradientColor=#ffd966;strokeColor=#d6b656;" vertex="1" parent="1">
          <mxGeometry x="441.5" y="970" width="118.5" height="100" as="geometry" />
        </mxCell>
        <mxCell id="wF7e7sbDuZ6mt1JohIce-175" style="edgeStyle=orthogonalEdgeStyle;rounded=0;orthogonalLoop=1;jettySize=auto;html=1;exitX=0.5;exitY=1;exitDx=0;exitDy=0;exitPerimeter=0;" edge="1" parent="1" source="wF7e7sbDuZ6mt1JohIce-155" target="wF7e7sbDuZ6mt1JohIce-158">
          <mxGeometry relative="1" as="geometry" />
        </mxCell>
        <mxCell id="wF7e7sbDuZ6mt1JohIce-155" value="liquido estado liquido&amp;nbsp;" style="strokeWidth=2;html=1;shape=mxgraph.flowchart.display;whiteSpace=wrap;fillColor=#b0e3e6;strokeColor=#0e8088;" vertex="1" parent="1">
          <mxGeometry x="595" y="1109" width="100" height="60" as="geometry" />
        </mxCell>
        <mxCell id="wF7e7sbDuZ6mt1JohIce-157" value="Liquido congelado&amp;nbsp;" style="strokeWidth=2;html=1;shape=mxgraph.flowchart.display;whiteSpace=wrap;fillColor=#b0e3e6;strokeColor=#0e8088;" vertex="1" parent="1">
          <mxGeometry x="284" y="1065" width="100" height="60" as="geometry" />
        </mxCell>
        <mxCell id="wF7e7sbDuZ6mt1JohIce-158" value="Fim" style="strokeWidth=2;html=1;shape=mxgraph.flowchart.start_1;whiteSpace=wrap;fillColor=#f5f5f5;gradientColor=#b3b3b3;strokeColor=#666666;" vertex="1" parent="1">
          <mxGeometry x="529" y="1260" width="100" height="60" as="geometry" />
        </mxCell>
        <mxCell id="wF7e7sbDuZ6mt1JohIce-159" value="Liquido gasoso" style="strokeWidth=2;html=1;shape=mxgraph.flowchart.display;whiteSpace=wrap;fillColor=#b0e3e6;strokeColor=#0e8088;" vertex="1" parent="1">
          <mxGeometry x="870" y="1060" width="100" height="60" as="geometry" />
        </mxCell>
        <mxCell id="wF7e7sbDuZ6mt1JohIce-170" value="" style="edgeStyle=orthogonalEdgeStyle;rounded=0;orthogonalLoop=1;jettySize=auto;html=1;" edge="1" parent="1" source="wF7e7sbDuZ6mt1JohIce-166" target="wF7e7sbDuZ6mt1JohIce-159">
          <mxGeometry relative="1" as="geometry" />
        </mxCell>
        <mxCell id="wF7e7sbDuZ6mt1JohIce-171" value="sim" style="edgeLabel;html=1;align=center;verticalAlign=middle;resizable=0;points=[];" vertex="1" connectable="0" parent="wF7e7sbDuZ6mt1JohIce-170">
          <mxGeometry x="-0.12" y="-2" relative="1" as="geometry">
            <mxPoint as="offset" />
          </mxGeometry>
        </mxCell>
        <mxCell id="wF7e7sbDuZ6mt1JohIce-166" value="Temperatura é &amp;gt;= 100?" style="strokeWidth=2;html=1;shape=mxgraph.flowchart.decision;whiteSpace=wrap;fillColor=#fff2cc;gradientColor=#ffd966;strokeColor=#d6b656;" vertex="1" parent="1">
          <mxGeometry x="682.5" y="970" width="137.5" height="110" as="geometry" />
        </mxCell>
        <mxCell id="wF7e7sbDuZ6mt1JohIce-172" style="edgeStyle=orthogonalEdgeStyle;rounded=0;orthogonalLoop=1;jettySize=auto;html=1;exitX=0.5;exitY=1;exitDx=0;exitDy=0;exitPerimeter=0;entryX=0.984;entryY=0.693;entryDx=0;entryDy=0;entryPerimeter=0;" edge="1" parent="1" source="wF7e7sbDuZ6mt1JohIce-166" target="wF7e7sbDuZ6mt1JohIce-155">
          <mxGeometry relative="1" as="geometry">
            <Array as="points">
              <mxPoint x="751" y="1100" />
              <mxPoint x="720" y="1100" />
              <mxPoint x="720" y="1151" />
            </Array>
          </mxGeometry>
        </mxCell>
        <mxCell id="wF7e7sbDuZ6mt1JohIce-173" value="Não" style="edgeLabel;html=1;align=center;verticalAlign=middle;resizable=0;points=[];" vertex="1" connectable="0" parent="wF7e7sbDuZ6mt1JohIce-172">
          <mxGeometry x="0.0879" y="2" relative="1" as="geometry">
            <mxPoint as="offset" />
          </mxGeometry>
        </mxCell>
        <mxCell id="wF7e7sbDuZ6mt1JohIce-174" style="edgeStyle=orthogonalEdgeStyle;rounded=0;orthogonalLoop=1;jettySize=auto;html=1;exitX=0.5;exitY=1;exitDx=0;exitDy=0;exitPerimeter=0;entryX=0.012;entryY=0.63;entryDx=0;entryDy=0;entryPerimeter=0;" edge="1" parent="1" source="wF7e7sbDuZ6mt1JohIce-157" target="wF7e7sbDuZ6mt1JohIce-158">
          <mxGeometry relative="1" as="geometry">
            <Array as="points">
              <mxPoint x="334" y="1290" />
              <mxPoint x="530" y="1290" />
            </Array>
          </mxGeometry>
        </mxCell>
        <mxCell id="wF7e7sbDuZ6mt1JohIce-176" style="edgeStyle=orthogonalEdgeStyle;rounded=0;orthogonalLoop=1;jettySize=auto;html=1;exitX=0.5;exitY=1;exitDx=0;exitDy=0;exitPerimeter=0;" edge="1" parent="1" source="wF7e7sbDuZ6mt1JohIce-159">
          <mxGeometry relative="1" as="geometry">
            <mxPoint x="630" y="1290" as="targetPoint" />
            <Array as="points">
              <mxPoint x="920" y="1280" />
              <mxPoint x="670" y="1280" />
              <mxPoint x="670" y="1290" />
            </Array>
          </mxGeometry>
        </mxCell>
        <mxCell id="wF7e7sbDuZ6mt1JohIce-177" value="" style="edgeStyle=orthogonalEdgeStyle;rounded=0;orthogonalLoop=1;jettySize=auto;html=1;" edge="1" parent="1" source="wF7e7sbDuZ6mt1JohIce-178" target="wF7e7sbDuZ6mt1JohIce-180">
          <mxGeometry relative="1" as="geometry" />
        </mxCell>
        <mxCell id="wF7e7sbDuZ6mt1JohIce-178" value="Iníco" style="strokeWidth=2;html=1;shape=mxgraph.flowchart.start_1;whiteSpace=wrap;fillColor=#fad9d5;strokeColor=#ae4132;" vertex="1" parent="1">
          <mxGeometry x="1196" y="445" width="80" height="45" as="geometry" />
        </mxCell>
        <mxCell id="wF7e7sbDuZ6mt1JohIce-179" value="" style="edgeStyle=orthogonalEdgeStyle;rounded=0;orthogonalLoop=1;jettySize=auto;html=1;" edge="1" parent="1" source="wF7e7sbDuZ6mt1JohIce-180" target="wF7e7sbDuZ6mt1JohIce-185">
          <mxGeometry relative="1" as="geometry" />
        </mxCell>
        <mxCell id="wF7e7sbDuZ6mt1JohIce-180" value="obter a idade" style="shape=parallelogram;html=1;strokeWidth=2;perimeter=parallelogramPerimeter;whiteSpace=wrap;rounded=1;arcSize=12;size=0.23;fillColor=#b1ddf0;strokeColor=#10739e;" vertex="1" parent="1">
          <mxGeometry x="1180" y="550" width="96" height="50" as="geometry" />
        </mxCell>
        <mxCell id="wF7e7sbDuZ6mt1JohIce-181" value="" style="edgeStyle=orthogonalEdgeStyle;rounded=0;orthogonalLoop=1;jettySize=auto;html=1;entryX=0.5;entryY=0;entryDx=0;entryDy=0;entryPerimeter=0;" edge="1" parent="1" source="wF7e7sbDuZ6mt1JohIce-185" target="wF7e7sbDuZ6mt1JohIce-188">
          <mxGeometry relative="1" as="geometry">
            <mxPoint x="1075" y="715" as="targetPoint" />
          </mxGeometry>
        </mxCell>
        <mxCell id="wF7e7sbDuZ6mt1JohIce-182" value="sim" style="edgeLabel;html=1;align=center;verticalAlign=middle;resizable=0;points=[];" vertex="1" connectable="0" parent="wF7e7sbDuZ6mt1JohIce-181">
          <mxGeometry x="-0.1345" y="-2" relative="1" as="geometry">
            <mxPoint x="1" as="offset" />
          </mxGeometry>
        </mxCell>
        <mxCell id="wF7e7sbDuZ6mt1JohIce-183" value="" style="edgeStyle=orthogonalEdgeStyle;rounded=0;orthogonalLoop=1;jettySize=auto;html=1;" edge="1" parent="1" source="wF7e7sbDuZ6mt1JohIce-185" target="wF7e7sbDuZ6mt1JohIce-193">
          <mxGeometry relative="1" as="geometry" />
        </mxCell>
        <mxCell id="wF7e7sbDuZ6mt1JohIce-184" value="Não" style="edgeLabel;html=1;align=center;verticalAlign=middle;resizable=0;points=[];" vertex="1" connectable="0" parent="wF7e7sbDuZ6mt1JohIce-183">
          <mxGeometry x="-0.1952" relative="1" as="geometry">
            <mxPoint as="offset" />
          </mxGeometry>
        </mxCell>
        <mxCell id="wF7e7sbDuZ6mt1JohIce-185" value="idade entre &amp;lt;16?" style="strokeWidth=2;html=1;shape=mxgraph.flowchart.decision;whiteSpace=wrap;fillColor=#fff2cc;gradientColor=#ffd966;strokeColor=#d6b656;" vertex="1" parent="1">
          <mxGeometry x="1137.5" y="660" width="118.5" height="100" as="geometry" />
        </mxCell>
        <mxCell id="wF7e7sbDuZ6mt1JohIce-186" style="edgeStyle=orthogonalEdgeStyle;rounded=0;orthogonalLoop=1;jettySize=auto;html=1;exitX=0.5;exitY=1;exitDx=0;exitDy=0;exitPerimeter=0;" edge="1" parent="1" source="wF7e7sbDuZ6mt1JohIce-187" target="wF7e7sbDuZ6mt1JohIce-189">
          <mxGeometry relative="1" as="geometry" />
        </mxCell>
        <mxCell id="wF7e7sbDuZ6mt1JohIce-187" value="voto facultativo" style="strokeWidth=2;html=1;shape=mxgraph.flowchart.display;whiteSpace=wrap;fillColor=#b0e3e6;strokeColor=#0e8088;" vertex="1" parent="1">
          <mxGeometry x="1291" y="799" width="100" height="60" as="geometry" />
        </mxCell>
        <mxCell id="wF7e7sbDuZ6mt1JohIce-188" value="Não pode votar" style="strokeWidth=2;html=1;shape=mxgraph.flowchart.display;whiteSpace=wrap;fillColor=#b0e3e6;strokeColor=#0e8088;" vertex="1" parent="1">
          <mxGeometry x="980" y="755" width="100" height="60" as="geometry" />
        </mxCell>
        <mxCell id="wF7e7sbDuZ6mt1JohIce-189" value="Fim" style="strokeWidth=2;html=1;shape=mxgraph.flowchart.start_1;whiteSpace=wrap;fillColor=#f5f5f5;gradientColor=#b3b3b3;strokeColor=#666666;" vertex="1" parent="1">
          <mxGeometry x="1225" y="950" width="100" height="60" as="geometry" />
        </mxCell>
        <mxCell id="wF7e7sbDuZ6mt1JohIce-190" value="voto obrigatorio&amp;nbsp;" style="strokeWidth=2;html=1;shape=mxgraph.flowchart.display;whiteSpace=wrap;fillColor=#b0e3e6;strokeColor=#0e8088;" vertex="1" parent="1">
          <mxGeometry x="1565" y="750" width="100" height="60" as="geometry" />
        </mxCell>
        <mxCell id="wF7e7sbDuZ6mt1JohIce-191" value="" style="edgeStyle=orthogonalEdgeStyle;rounded=0;orthogonalLoop=1;jettySize=auto;html=1;" edge="1" parent="1" source="wF7e7sbDuZ6mt1JohIce-193" target="wF7e7sbDuZ6mt1JohIce-190">
          <mxGeometry relative="1" as="geometry" />
        </mxCell>
        <mxCell id="wF7e7sbDuZ6mt1JohIce-192" value="sim" style="edgeLabel;html=1;align=center;verticalAlign=middle;resizable=0;points=[];" vertex="1" connectable="0" parent="wF7e7sbDuZ6mt1JohIce-191">
          <mxGeometry x="-0.12" y="-2" relative="1" as="geometry">
            <mxPoint as="offset" />
          </mxGeometry>
        </mxCell>
        <mxCell id="wF7e7sbDuZ6mt1JohIce-193" value="idade é &amp;gt;=18 ou menor que 70?" style="strokeWidth=2;html=1;shape=mxgraph.flowchart.decision;whiteSpace=wrap;fillColor=#fff2cc;gradientColor=#ffd966;strokeColor=#d6b656;" vertex="1" parent="1">
          <mxGeometry x="1378.5" y="660" width="137.5" height="110" as="geometry" />
        </mxCell>
        <mxCell id="wF7e7sbDuZ6mt1JohIce-194" style="edgeStyle=orthogonalEdgeStyle;rounded=0;orthogonalLoop=1;jettySize=auto;html=1;exitX=0.5;exitY=1;exitDx=0;exitDy=0;exitPerimeter=0;entryX=0.984;entryY=0.693;entryDx=0;entryDy=0;entryPerimeter=0;" edge="1" parent="1" source="wF7e7sbDuZ6mt1JohIce-193" target="wF7e7sbDuZ6mt1JohIce-187">
          <mxGeometry relative="1" as="geometry">
            <Array as="points">
              <mxPoint x="1447" y="790" />
              <mxPoint x="1416" y="790" />
              <mxPoint x="1416" y="841" />
            </Array>
          </mxGeometry>
        </mxCell>
        <mxCell id="wF7e7sbDuZ6mt1JohIce-195" value="Não" style="edgeLabel;html=1;align=center;verticalAlign=middle;resizable=0;points=[];" vertex="1" connectable="0" parent="wF7e7sbDuZ6mt1JohIce-194">
          <mxGeometry x="0.0879" y="2" relative="1" as="geometry">
            <mxPoint as="offset" />
          </mxGeometry>
        </mxCell>
        <mxCell id="wF7e7sbDuZ6mt1JohIce-196" style="edgeStyle=orthogonalEdgeStyle;rounded=0;orthogonalLoop=1;jettySize=auto;html=1;exitX=0.5;exitY=1;exitDx=0;exitDy=0;exitPerimeter=0;entryX=0.012;entryY=0.63;entryDx=0;entryDy=0;entryPerimeter=0;" edge="1" parent="1">
          <mxGeometry relative="1" as="geometry">
            <Array as="points">
              <mxPoint x="1020" y="850" />
              <mxPoint x="1090" y="850" />
              <mxPoint x="1090" y="980" />
              <mxPoint x="1216" y="980" />
            </Array>
            <mxPoint x="1020" y="815" as="sourcePoint" />
            <mxPoint x="1216.1999999999998" y="987.8" as="targetPoint" />
          </mxGeometry>
        </mxCell>
        <mxCell id="wF7e7sbDuZ6mt1JohIce-197" style="edgeStyle=orthogonalEdgeStyle;rounded=0;orthogonalLoop=1;jettySize=auto;html=1;exitX=0.5;exitY=1;exitDx=0;exitDy=0;exitPerimeter=0;" edge="1" parent="1" source="wF7e7sbDuZ6mt1JohIce-190">
          <mxGeometry relative="1" as="geometry">
            <mxPoint x="1326" y="980" as="targetPoint" />
            <Array as="points">
              <mxPoint x="1600" y="810" />
              <mxPoint x="1600" y="920" />
              <mxPoint x="1440" y="920" />
              <mxPoint x="1440" y="980" />
            </Array>
          </mxGeometry>
        </mxCell>
        <mxCell id="wF7e7sbDuZ6mt1JohIce-201" value="" style="edgeStyle=orthogonalEdgeStyle;rounded=0;orthogonalLoop=1;jettySize=auto;html=1;" edge="1" parent="1" source="wF7e7sbDuZ6mt1JohIce-198" target="wF7e7sbDuZ6mt1JohIce-199">
          <mxGeometry relative="1" as="geometry" />
        </mxCell>
        <mxCell id="wF7e7sbDuZ6mt1JohIce-198" value="Inicio&amp;nbsp;" style="strokeWidth=2;html=1;shape=mxgraph.flowchart.start_1;whiteSpace=wrap;fillColor=#fad9d5;strokeColor=#ae4132;" vertex="1" parent="1">
          <mxGeometry x="1832.5" y="540" width="100" height="60" as="geometry" />
        </mxCell>
        <mxCell id="wF7e7sbDuZ6mt1JohIce-202" value="" style="edgeStyle=orthogonalEdgeStyle;rounded=0;orthogonalLoop=1;jettySize=auto;html=1;" edge="1" parent="1" source="wF7e7sbDuZ6mt1JohIce-199" target="wF7e7sbDuZ6mt1JohIce-200">
          <mxGeometry relative="1" as="geometry" />
        </mxCell>
        <mxCell id="wF7e7sbDuZ6mt1JohIce-199" value="Definir numero inicial" style="shape=parallelogram;html=1;strokeWidth=2;perimeter=parallelogramPerimeter;whiteSpace=wrap;rounded=1;arcSize=12;size=0.23;fillColor=#b1ddf0;strokeColor=#10739e;" vertex="1" parent="1">
          <mxGeometry x="1787" y="645" width="180" height="40" as="geometry" />
        </mxCell>
        <mxCell id="wF7e7sbDuZ6mt1JohIce-204" value="" style="edgeStyle=orthogonalEdgeStyle;rounded=0;orthogonalLoop=1;jettySize=auto;html=1;" edge="1" parent="1" source="wF7e7sbDuZ6mt1JohIce-200" target="wF7e7sbDuZ6mt1JohIce-203">
          <mxGeometry relative="1" as="geometry" />
        </mxCell>
        <mxCell id="wF7e7sbDuZ6mt1JohIce-208" value="" style="edgeStyle=orthogonalEdgeStyle;rounded=0;orthogonalLoop=1;jettySize=auto;html=1;" edge="1" parent="1" source="wF7e7sbDuZ6mt1JohIce-200" target="wF7e7sbDuZ6mt1JohIce-203">
          <mxGeometry relative="1" as="geometry" />
        </mxCell>
        <mxCell id="wF7e7sbDuZ6mt1JohIce-209" value="sim" style="edgeLabel;html=1;align=center;verticalAlign=middle;resizable=0;points=[];" vertex="1" connectable="0" parent="wF7e7sbDuZ6mt1JohIce-208">
          <mxGeometry x="-0.3869" relative="1" as="geometry">
            <mxPoint as="offset" />
          </mxGeometry>
        </mxCell>
        <mxCell id="wF7e7sbDuZ6mt1JohIce-200" value="o numero é &amp;lt;= 20?" style="strokeWidth=2;html=1;shape=mxgraph.flowchart.decision;whiteSpace=wrap;fillColor=#fff2cc;strokeColor=#d6b656;gradientColor=#ffd966;" vertex="1" parent="1">
          <mxGeometry x="1807.5" y="730" width="125" height="100" as="geometry" />
        </mxCell>
        <mxCell id="wF7e7sbDuZ6mt1JohIce-206" value="" style="edgeStyle=orthogonalEdgeStyle;rounded=0;orthogonalLoop=1;jettySize=auto;html=1;" edge="1" parent="1" source="wF7e7sbDuZ6mt1JohIce-203" target="wF7e7sbDuZ6mt1JohIce-205">
          <mxGeometry relative="1" as="geometry" />
        </mxCell>
        <mxCell id="wF7e7sbDuZ6mt1JohIce-203" value="Dizer o numero atual" style="strokeWidth=2;html=1;shape=mxgraph.flowchart.display;whiteSpace=wrap;fillColor=#b0e3e6;strokeColor=#0e8088;" vertex="1" parent="1">
          <mxGeometry x="1815" y="885" width="100" height="60" as="geometry" />
        </mxCell>
        <mxCell id="wF7e7sbDuZ6mt1JohIce-211" value="" style="edgeStyle=orthogonalEdgeStyle;rounded=0;orthogonalLoop=1;jettySize=auto;html=1;" edge="1" parent="1" source="wF7e7sbDuZ6mt1JohIce-205" target="wF7e7sbDuZ6mt1JohIce-210">
          <mxGeometry relative="1" as="geometry" />
        </mxCell>
        <mxCell id="wF7e7sbDuZ6mt1JohIce-205" value="Incentivar o numero em +2" style="rounded=1;whiteSpace=wrap;html=1;absoluteArcSize=1;arcSize=14;strokeWidth=2;fillColor=#d0cee2;strokeColor=#56517e;" vertex="1" parent="1">
          <mxGeometry x="1760" y="975" width="94" height="60" as="geometry" />
        </mxCell>
        <mxCell id="wF7e7sbDuZ6mt1JohIce-207" style="edgeStyle=orthogonalEdgeStyle;rounded=0;orthogonalLoop=1;jettySize=auto;html=1;exitX=0;exitY=0.5;exitDx=0;exitDy=0;entryX=0;entryY=0.5;entryDx=0;entryDy=0;entryPerimeter=0;" edge="1" parent="1" source="wF7e7sbDuZ6mt1JohIce-205" target="wF7e7sbDuZ6mt1JohIce-200">
          <mxGeometry relative="1" as="geometry" />
        </mxCell>
        <mxCell id="wF7e7sbDuZ6mt1JohIce-210" value="Fim" style="strokeWidth=2;html=1;shape=mxgraph.flowchart.terminator;whiteSpace=wrap;fillColor=#bac8d3;strokeColor=#23445d;" vertex="1" parent="1">
          <mxGeometry x="1800" y="1049" width="100" height="60" as="geometry" />
        </mxCell>
        <mxCell id="wF7e7sbDuZ6mt1JohIce-213" style="edgeStyle=orthogonalEdgeStyle;rounded=0;orthogonalLoop=1;jettySize=auto;html=1;exitX=1;exitY=0.5;exitDx=0;exitDy=0;entryX=1;entryY=0.5;entryDx=0;entryDy=0;entryPerimeter=0;" edge="1" parent="1" source="wF7e7sbDuZ6mt1JohIce-205" target="wF7e7sbDuZ6mt1JohIce-200">
          <mxGeometry relative="1" as="geometry" />
        </mxCell>
      </root>
    </mxGraphModel>
  </diagram>
</mxfile>
